<svg xmlns="http://www.w3.org/2000/svg" width="98" height="98" viewBox="0 0 98 98">
  <g id="teya-login-logo" transform="translate(-183.4 -180.4)">
    <g id="Group_3969" data-name="Group 3969" transform="translate(183 180)">
      <circle id="Ellipse_1247" data-name="Ellipse 1247" cx="49" cy="49" r="49" transform="translate(0.4 0.4)" fill="#04d1ef"/>
      <circle id="Ellipse_1247-2" data-name="Ellipse 1247" cx="30" cy="30" r="30" transform="translate(19.4 19.4)" fill="#fff"/>
      <path id="Path_12993" data-name="Path 12993" d="M644.9,289.062a10.112,10.112,0,1,1-3.379,6.971A10.12,10.12,0,0,1,644.9,289.062Z" transform="translate(-570.062 -269.835)" fill="#04d1ef"/>
      <path id="Path_12994" data-name="Path 12994" d="M664.541,310.774a6.936,6.936,0,1,1-2.316,4.781A6.94,6.94,0,0,1,664.541,310.774Z" transform="translate(-587.577 -288.877)" fill="#fff"/>
      <path id="Path_12995" data-name="Path 12995" d="M423.209,421.324a12.9,12.9,0,1,1-1.065,18.207A12.9,12.9,0,0,1,423.209,421.324Z" transform="translate(-381.794 -381.097)" fill="#04d1ef"/>
    </g>
  </g>
</svg>
