<svg id="saudi-arabia" xmlns="http://www.w3.org/2000/svg" width="25.974" height="25.974" viewBox="0 0 25.974 25.974">
  <path id="Path_3006" data-name="Path 3006" d="M20.292,0H5.682A5.682,5.682,0,0,0,0,5.682v14.61a5.682,5.682,0,0,0,5.682,5.682h14.61a5.682,5.682,0,0,0,5.682-5.682V5.682A5.682,5.682,0,0,0,20.292,0Z" fill="#73af00"/>
  <g id="Group_1568" data-name="Group 1568" transform="translate(3.613 7.099)">
    <path id="Path_3007" data-name="Path 3007" d="M72.61,150.7c.053.338.257.444.434.43a.436.436,0,0,0,.393-.41v-1.159a.105.105,0,1,1,.211,0v1.164a.421.421,0,0,0,.578.391l.105-.042c.01.973-.049,1.828-.051,1.844a.211.211,0,0,0,.2.225h.015a.211.211,0,0,0,.21-.2c0-.069.07-1,.05-2.042l.064-.025a.211.211,0,0,1,.172.007.6.6,0,0,0,.695-.113l.038-.038a.629.629,0,0,0,.153-.647l-.179-.538a.211.211,0,0,0,.156-.39l-.422-.211a.211.211,0,0,0-.294.255l.339,1.017a.21.21,0,0,1-.051.216l-.038.038a.181.181,0,0,1-.209.034.63.63,0,0,0-.438-.044,7.267,7.267,0,0,0-.258-1.816.211.211,0,0,0-.4.133,7.241,7.241,0,0,1,.241,1.839l-.252.1v-1.164a.527.527,0,1,0-1.054,0v1.02l-.215-1.062a.211.211,0,1,0-.413.084Z" transform="translate(-72.325 -148.075)" fill="#f5f5f5"/>
    <path id="Path_3008" data-name="Path 3008" d="M80.909,144.99a.211.211,0,0,0,.211-.211v-.211a.211.211,0,1,0-.421,0v.211A.211.211,0,0,0,80.909,144.99Z" transform="translate(-80.217 -144.134)" fill="#f5f5f5"/>
    <path id="Path_3009" data-name="Path 3009" d="M122.451,144.778h.211a.211.211,0,0,0,0-.421h-.211a.211.211,0,1,0,0,.421Z" transform="translate(-119.652 -144.133)" fill="#f5f5f5"/>
    <path id="Path_3010" data-name="Path 3010" d="M77.7,206.7l-1.054.632a.211.211,0,0,0,.217.361l1.054-.632a.211.211,0,1,0-.217-.361Z" transform="translate(-76.273 -203.285)" fill="#f5f5f5"/>
    <path id="Path_3011" data-name="Path 3011" d="M92.278,151.862l0,0a.481.481,0,0,0,.1.2.414.414,0,0,0,.359.14.581.581,0,0,0,.438-.231.381.381,0,0,0,.044.026.4.4,0,0,0,.371-.012.8.8,0,0,0,.377-.742.216.216,0,0,0-.219-.2.211.211,0,0,0-.2.219s0,.253-.148.346a.513.513,0,0,1-.066-.178.211.211,0,0,0-.419.035c0,.031-.007.3-.216.324a.515.515,0,0,1,0-.276.211.211,0,0,0-.324-.223l-.118.08c-.056-1.222-.185-2.646-.186-2.665a.211.211,0,0,0-.42.038c0,.02.151,1.667.2,2.926l-.032.031a.543.543,0,0,0-.461-.363.769.769,0,0,0-.742.47.5.5,0,0,0,.161.629.7.7,0,0,0,.629.029,1.762,1.762,0,0,1-.343.65.884.884,0,0,1-.673.343.553.553,0,0,1-.409-.174,1.2,1.2,0,0,1-.223-.754.211.211,0,0,0-.2-.221.207.207,0,0,0-.222.2,1.617,1.617,0,0,0,.331,1.059.967.967,0,0,0,.706.313h.042a1.284,1.284,0,0,0,.967-.49,2.18,2.18,0,0,0,.483-1.08,2.388,2.388,0,0,1-1.011,1.892,1.052,1.052,0,0,1-1.056.077.9.9,0,0,1-.464-.891.211.211,0,1,0-.418-.052,1.323,1.323,0,0,0,.7,1.321,1.432,1.432,0,0,0,.638.152,1.559,1.559,0,0,0,.827-.249,2.8,2.8,0,0,0,1.21-2.252C92.285,152.167,92.282,152.018,92.278,151.862Zm-1.271.217c-.038-.025-.008-.1,0-.12a.358.358,0,0,1,.294-.207h.017c.027,0,.1.009.129.168,0,.017.006.034.008.052C91.219,152.111,91.061,152.115,91.007,152.08Z" transform="translate(-88.011 -148.074)" fill="#f5f5f5"/>
    <path id="Path_3012" data-name="Path 3012" d="M72.022,240.785a.211.211,0,0,0-.288.075.439.439,0,0,1-.036.05l-.007-.017a1.418,1.418,0,0,1,.006-.715.211.211,0,0,0-.407-.109,1.815,1.815,0,0,0,.006.972c.1.258.245.323.353.332h.028a.554.554,0,0,0,.42-.3A.21.21,0,0,0,72.022,240.785Z" transform="translate(-71.224 -234.842)" fill="#f5f5f5"/>
    <path id="Path_3013" data-name="Path 3013" d="M159.666,146.253a.209.209,0,0,0,.13-.045l1.063-.834a.2.2,0,0,0,.035-.041.528.528,0,1,0-.606-.047l-.752.59a.211.211,0,0,0,.13.376Zm.957-1.475a.105.105,0,1,1-.105.105A.105.105,0,0,1,160.623,144.778Z" transform="translate(-154.979 -144.132)" fill="#f5f5f5"/>
    <path id="Path_3014" data-name="Path 3014" d="M171.729,177.6a.21.21,0,0,0-.267.133.644.644,0,0,0,.082.622.425.425,0,0,0,.315.12.926.926,0,0,0,.291-.054.211.211,0,1,0-.133-.4.735.735,0,0,1-.172.037.4.4,0,0,1,.017-.193A.211.211,0,0,0,171.729,177.6Z" transform="translate(-166.334 -175.68)" fill="#f5f5f5"/>
    <path id="Path_3015" data-name="Path 3015" d="M222.265,145.018a.211.211,0,0,0,.261-.143l.123-.421a.211.211,0,0,0-.4-.118l-.123.421A.211.211,0,0,0,222.265,145.018Z" transform="translate(-214.458 -143.968)" fill="#f5f5f5"/>
    <path id="Path_3016" data-name="Path 3016" d="M196.3,140.968a.211.211,0,0,0,.213-.364c-.042-.025-.037-.094-.035-.108a.165.165,0,0,1,.1-.141.211.211,0,0,0-.125-.4.579.579,0,0,0-.39.5A.52.52,0,0,0,196.3,140.968Z" transform="translate(-189.725 -139.943)" fill="#f5f5f5"/>
    <path id="Path_3017" data-name="Path 3017" d="M163.994,227.442a.211.211,0,0,0-.04.418.4.4,0,0,1,.04.214.211.211,0,1,0,.421,0C164.415,227.449,164.011,227.442,163.994,227.442Z" transform="translate(-159.087 -223.003)" fill="#f5f5f5"/>
    <path id="Path_3018" data-name="Path 3018" d="M230.664,198.963a.491.491,0,0,0,.079.006.72.72,0,0,0,.5-.249.211.211,0,1,0-.3-.3c-.126.126-.194.129-.211.125-.04-.006-.077-.058-.085-.073a.211.211,0,0,0-.376.191A.57.57,0,0,0,230.664,198.963Z" transform="translate(-222.182 -195.397)" fill="#f5f5f5"/>
    <path id="Path_3019" data-name="Path 3019" d="M301.285,178.2l0-.009a.211.211,0,0,0-.4.135.472.472,0,0,0,.343.328.347.347,0,0,0,.046,0,.516.516,0,0,0,.408-.281.211.211,0,1,0-.351-.234A.65.65,0,0,1,301.285,178.2Z" transform="translate(-289.221 -176.115)" fill="#f5f5f5"/>
    <path id="Path_3020" data-name="Path 3020" d="M194.4,153.984c0-.9-.04-1.742-.094-2.481a10.676,10.676,0,0,1,.74,1.5.211.211,0,0,0,.395-.148,13.957,13.957,0,0,0-1.219-2.31c-.115-1.135-.244-1.856-.246-1.869a.211.211,0,0,0-.415.075c0,.009.068.38.147,1.005-.162-.24-.312-.457-.439-.635l.01,0a.211.211,0,1,0,.133-.4l-.632-.211a.208.208,0,0,0-.268.141.46.46,0,0,0-.44-.106.359.359,0,0,0-.2.375,1.9,1.9,0,0,0,.145.6c.124.352.2.61.07.733a.23.23,0,0,1-.216.076c-.13-.033-.259-.206-.344-.463a.2.2,0,0,0-.017-.029,3.585,3.585,0,0,0-.064-1.166.211.211,0,0,0-.413.083,2.006,2.006,0,0,1-.11,1.5.378.378,0,0,1-.315.143.121.121,0,0,1-.1-.047,2.031,2.031,0,0,1-.112-1.188.211.211,0,0,0-.209-.24c-.363,0-.5.412-.621.776-.053.16-.152.457-.222.488-.128,0-.21-.375-.211-.632a.211.211,0,0,0-.211-.21h0a.21.21,0,0,0-.21.211c0,.486.166,1.054.632,1.054.348,0,.488-.379.606-.731a1.321,1.321,0,0,0,.239.749.541.541,0,0,0,.419.192.8.8,0,0,0,.641-.3.985.985,0,0,0,.078-.116.786.786,0,0,0,.442.331.608.608,0,0,0,.149.019.669.669,0,0,0,.459-.2.618.618,0,0,0,.07-.085.569.569,0,0,0,.156.023.853.853,0,0,0,.437-.134.211.211,0,0,0-.226-.355.447.447,0,0,1-.239.063,2.175,2.175,0,0,0-.16-.693,2.915,2.915,0,0,1-.109-.352c.017.015.034.03.049.045a.211.211,0,0,0,.3,0,.2.2,0,0,0,.031-.046c.218.3.668.933,1.13,1.662.088.9.166,2.039.166,3.293a.211.211,0,0,0,.422,0Z" transform="translate(-182.747 -148.069)" fill="#f5f5f5"/>
    <path id="Path_3021" data-name="Path 3021" d="M301.082,149.357a.211.211,0,0,0,.421,0,2.152,2.152,0,0,0-.233-.727.211.211,0,0,0-.377.189A1.872,1.872,0,0,1,301.082,149.357Z" transform="translate(-289.221 -148.079)" fill="#f5f5f5"/>
    <path id="Path_3022" data-name="Path 3022" d="M264.632,248.658a.21.21,0,0,0-.283.093.6.6,0,0,1-.087.125,1.177,1.177,0,0,1,.055-.39.211.211,0,0,0-.35-.211l-.422.421a.211.211,0,1,0,.3.3l.011-.011a.436.436,0,0,0,.113.221.386.386,0,0,0,.274.121.366.366,0,0,0,.058,0,.686.686,0,0,0,.427-.382A.21.21,0,0,0,264.632,248.658Z" transform="translate(-253.73 -242.721)" fill="#f5f5f5"/>
    <path id="Path_3023" data-name="Path 3023" d="M154.134,195.7h-1.485q.02-.079.041-.15c.592-.123.944-.314,1.048-.569a.471.471,0,0,0-.079-.473.522.522,0,0,0-.533-.227c-.3.061-.566.383-.758.9a2.422,2.422,0,0,0-1.217.526,3.267,3.267,0,0,0-.437-1.4.211.211,0,0,0-.351.234,3.043,3.043,0,0,1,.386,1.569,1.668,1.668,0,0,1-1.264,1.686c-.237,0-.34-.281-.386-.519a2.42,2.42,0,0,0,1.012-1.116,1.676,1.676,0,0,0-.14-1.142l-.016-.037.013.013a.211.211,0,0,0,.3-.3c-.123-.123-.362-.317-.58-.226a.359.359,0,0,0-.2.375.9.9,0,0,0,.1.339,1.274,1.274,0,0,1,.119.875,1.783,1.783,0,0,1-.69.761.207.207,0,0,0-.159-.077h0a.211.211,0,0,0-.21.211c0,.038,0,.078,0,.12a11.087,11.087,0,0,1-1.356.742.211.211,0,0,0,.087.4.208.208,0,0,0,.087-.019,12.136,12.136,0,0,0,1.259-.674.82.82,0,0,0,.762.693,1.79,1.79,0,0,0,1.41-1.031,1.229,1.229,0,0,0,.141.2,2.376,2.376,0,0,0,1.61.619.211.211,0,0,0,.015-.421.452.452,0,0,1-.263-.128.361.361,0,0,1-.069-.277c.022-.26.859-.454,1.6-.465a.211.211,0,0,0,.2-.14l.211-.593a.211.211,0,0,0-.2-.282Zm-.925-1.006.016,0c.02,0,.052.01.094.067.008.011.034.047.027.063-.024.06-.17.158-.473.248C153.008,194.8,153.138,194.7,153.209,194.689Zm-1.273,2.77a1.29,1.29,0,0,1-.583-.355.9.9,0,0,1-.187-.742.624.624,0,0,1,.044-.089c.3-.027,1.09.09,1.145.317a.708.708,0,0,0-.446.55A.892.892,0,0,0,151.937,197.459Z" transform="translate(-143.314 -191.454)" fill="#f5f5f5"/>
    <path id="Path_3024" data-name="Path 3024" d="M298.392,149.285l-.211-.632a.211.211,0,0,0-.41.088c.145,1.454.42,4.29.42,4.615,0,.292-.52.867-1.359,1.287a.211.211,0,0,0,.188.377c.767-.383,1.592-1.068,1.592-1.664,0-.311-.215-2.552-.339-3.81A.211.211,0,0,0,298.392,149.285Z" transform="translate(-285.277 -148.074)" fill="#f5f5f5"/>
    <path id="Path_3025" data-name="Path 3025" d="M351.42,181.951a.211.211,0,0,0,.353-.2,1.063,1.063,0,0,1-.03-.409.214.214,0,0,0,.219-.181.211.211,0,0,0-.179-.239.381.381,0,0,0-.347.117.483.483,0,0,0-.106.226l-.244-.244a.211.211,0,1,0-.3.3Z" transform="translate(-336.546 -178.838)" fill="#f5f5f5"/>
    <path id="Path_3026" data-name="Path 3026" d="M357.314,204.888l-.79.566a.211.211,0,1,0,.246.342l.79-.566a.211.211,0,1,0-.245-.342Z" transform="translate(-341.966 -201.555)" fill="#f5f5f5"/>
    <path id="Path_3027" data-name="Path 3027" d="M371.539,219.731a.211.211,0,0,0,.018.279.584.584,0,0,1,.043.3.211.211,0,0,0,.2.218h.008a.211.211,0,0,0,.211-.2c.015-.43-.125-.587-.187-.635A.211.211,0,0,0,371.539,219.731Z" transform="translate(-356.262 -215.606)" fill="#f5f5f5"/>
    <path id="Path_3028" data-name="Path 3028" d="M337.886,153.752a.211.211,0,0,0,.211-.211c0-.311-.016-.658-.042-1.019a7.7,7.7,0,0,1,.494.918.21.21,0,0,0,.194.128.208.208,0,0,0,.083-.017.211.211,0,0,0,.111-.277,11.6,11.6,0,0,0-.964-1.663c-.083-.774-.191-1.531-.275-2.075a.2.2,0,0,0,.132-.033.119.119,0,1,1,.117-.13.766.766,0,0,1,.077.516.211.211,0,0,0,.164.249.218.218,0,0,0,.043,0,.211.211,0,0,0,.206-.168,1.194,1.194,0,0,0-.134-.828.211.211,0,0,0-.291-.065.119.119,0,1,1-.118.13l-.356-.553a.211.211,0,0,0-.385.15c0,.017.164.941.307,2.056-.162-.228-.323-.451-.48-.664-.025-.319-.051-.614-.073-.857a.22.22,0,0,0,.034-.014.211.211,0,0,0,.094-.283l-.211-.422a.211.211,0,0,0-.4.115c.025.252.051.53.077.822-.133-.176-.257-.337-.362-.473a.211.211,0,0,0-.043-.348l-.422-.211a.211.211,0,0,0-.259.32c.011.014.53.665,1.151,1.5a16.944,16.944,0,0,1,.078,3.145c-.018.056-.051.121-.081.123-.127.018-.431-.267-.584-.572a.293.293,0,0,0-.282-.191c-.227.014-.315.263-.475.716a2.968,2.968,0,0,1-.419.892,2.394,2.394,0,0,1-.262-.83.21.21,0,0,0,.407-.071c0-.314-.22-2.708-.343-4.02a.211.211,0,0,0,.121-.262l-.211-.632a.211.211,0,0,0-.41.087c.143,1.5.412,4.407.42,4.808l0-.011a.211.211,0,1,0-.417.06c.062.431.219,1.171.581,1.292a.351.351,0,0,0,.112.018.414.414,0,0,0,.3-.137,3.038,3.038,0,0,0,.522-1.053c.031-.087.068-.191.1-.279.193.282.531.634.872.606a.517.517,0,0,0,.451-.41,11.865,11.865,0,0,0-.008-2.631c.178.249.355.5.525.755.066.631.113,1.263.113,1.783A.211.211,0,0,0,337.886,153.752Z" transform="translate(-320.77 -148.075)" fill="#f5f5f5"/>
    <path id="Path_3029" data-name="Path 3029" d="M407.182,153.14c-.149-1.112-.357-2.4-.489-3.191a.208.208,0,0,0,.177-.037.211.211,0,0,0,.04-.3l-.382-.5a.211.211,0,0,0-.375.164c0,.022.38,2.185.612,3.917a1.975,1.975,0,0,1-.347,1.581.933.933,0,0,1-.773.288.211.211,0,0,0-.027.421c.036,0,.071,0,.105,0a1.33,1.33,0,0,0,1-.425A2.355,2.355,0,0,0,407.182,153.14Z" transform="translate(-388.466 -148.572)" fill="#f5f5f5"/>
    <path id="Path_3030" data-name="Path 3030" d="M393.363,256.093a.213.213,0,0,0,.01.3.09.09,0,0,1,.025.044.1.1,0,0,1-.032.047.211.211,0,0,0,.3.3.478.478,0,0,0,.155-.36.5.5,0,0,0-.165-.343A.209.209,0,0,0,393.363,256.093Z" transform="translate(-376.965 -250.135)" fill="#f5f5f5"/>
    <path id="Path_3031" data-name="Path 3031" d="M135.306,340.6h-1.475v-.211a.211.211,0,0,0-.421,0v.211H122.24a2.942,2.942,0,0,0,1.9.632h9.273v.421a.211.211,0,0,0,.211.211h1.686a.632.632,0,0,0,0-1.264Zm0,.843h-1.475v-.211h1.686l-.038-.113a.2.2,0,0,1,.038.113A.211.211,0,0,1,135.306,341.442Z" transform="translate(-119.652 -330.02)" fill="#f5f5f5"/>
  </g>
</svg>
