<svg id="sidebar-logo" xmlns="http://www.w3.org/2000/svg" width="68.81" height="68.81" viewBox="0 0 68.81 68.81">
  <g id="Group_3969" transform="translate(0 0)">
    <circle id="Ellipse_1247" cx="34.405" cy="34.405" r="34.405" fill="#fff"/>
    <circle id="Ellipse_1247-2" cx="20.397" cy="20.397" r="20.397" transform="translate(14.008 14.008)" fill="#04d1ef"/>
    <path id="Path_12993" d="M360.774,401.206a7.021,7.021,0,1,1-.573,9.912,7.18,7.18,0,0,1-1.8-5.079A7.386,7.386,0,0,1,360.774,401.206Z" transform="translate(-308.675 -387.853)" fill="#fff"/>
    <path id="Path_12994" d="M362.736,403.631a4.8,4.8,0,0,1,6.8.41,4.879,4.879,0,0,1-.41,6.8,4.8,4.8,0,0,1-6.8-.41,5.018,5.018,0,0,1-1.229-3.522A4.708,4.708,0,0,1,362.736,403.631Z" transform="translate(-309.163 -388.394)" fill="#04d1ef"/>
    <path id="Path_12995" d="M332.239,419a8.993,8.993,0,1,1-.737,12.7,9.038,9.038,0,0,1,.737-12.7Z" transform="translate(-303.404 -390.986)" fill="#fff"/>
  </g>
</svg>
