<svg xmlns="http://www.w3.org/2000/svg" width="25.812" height="25.812" viewBox="0 0 25.812 25.812">
  <g id="united-states_1_" data-name="united-states (1)" transform="translate(0 0)">
    <g id="Group_1563" data-name="Group 1563" transform="translate(0 1.986)">
      <rect id="Rectangle_610" data-name="Rectangle 610" width="25.812" height="1.985" transform="translate(0 3.971)" fill="#f5f5f5"/>
      <path id="Path_2958" data-name="Path 2958" d="M29.225,39.385H6.108a5.636,5.636,0,0,0-1.1,1.986H30.32A5.636,5.636,0,0,0,29.225,39.385Z" transform="translate(-4.76 -39.385)" fill="#f5f5f5"/>
      <rect id="Rectangle_611" data-name="Rectangle 611" width="25.812" height="1.985" transform="translate(0 7.942)" fill="#f5f5f5"/>
      <rect id="Rectangle_612" data-name="Rectangle 612" width="25.812" height="1.985" transform="translate(0 11.913)" fill="#f5f5f5"/>
      <rect id="Rectangle_613" data-name="Rectangle 613" width="25.812" height="1.985" transform="translate(0 15.884)" fill="#f5f5f5"/>
      <path id="Path_2959" data-name="Path 2959" d="M30.32,433.231H5.013a5.635,5.635,0,0,0,1.1,1.986H29.225A5.635,5.635,0,0,0,30.32,433.231Z" transform="translate(-4.76 -413.375)" fill="#f5f5f5"/>
    </g>
    <g id="Group_1564" data-name="Group 1564" transform="translate(0 0)">
      <path id="Path_2960" data-name="Path 2960" d="M45.554,0H31.035a5.634,5.634,0,0,0-4.3,1.986H49.852A5.633,5.633,0,0,0,45.554,0Z" transform="translate(-25.388 0)" fill="#ff4b55"/>
      <rect id="Rectangle_614" data-name="Rectangle 614" width="25.812" height="1.985" transform="translate(0 7.942)" fill="#ff4b55"/>
      <path id="Path_2961" data-name="Path 2961" d="M25.812,80.445a5.644,5.644,0,0,0-.253-1.675H.253A5.644,5.644,0,0,0,0,80.445v.31H25.812Z" transform="translate(0 -74.799)" fill="#ff4b55"/>
      <rect id="Rectangle_615" data-name="Rectangle 615" width="25.812" height="1.985" transform="translate(0 11.913)" fill="#ff4b55"/>
      <path id="Path_2962" data-name="Path 2962" d="M25.812,394.156v-.31H0v.31a5.644,5.644,0,0,0,.253,1.675H25.56A5.644,5.644,0,0,0,25.812,394.156Z" transform="translate(0 -373.99)" fill="#ff4b55"/>
      <path id="Path_2963" data-name="Path 2963" d="M49.853,472.615H26.736a5.634,5.634,0,0,0,4.3,1.986H45.554A5.634,5.634,0,0,0,49.853,472.615Z" transform="translate(-25.388 -448.788)" fill="#ff4b55"/>
      <rect id="Rectangle_616" data-name="Rectangle 616" width="25.812" height="1.985" transform="translate(0 15.885)" fill="#ff4b55"/>
    </g>
    <path id="Path_2964" data-name="Path 2964" d="M13.9,0H5.646A5.646,5.646,0,0,0,0,5.646V13.9H13.9Z" transform="translate(0 0)" fill="#41479b"/>
    <g id="Group_1565" data-name="Group 1565" transform="translate(1.311 1.21)">
      <path id="Path_2965" data-name="Path 2965" d="M29.7,28.333a.046.046,0,0,0,.07.051l.275-.2.275.2a.046.046,0,0,0,.07-.051l-.1-.323.272-.2a.046.046,0,0,0-.027-.082l-.338,0-.058-.173a5.674,5.674,0,0,0-.415.4l.079.058Z" transform="translate(-29.514 -27.372)" fill="#f5f5f5"/>
      <path id="Path_2966" data-name="Path 2966" d="M26.575,77.167l.107.321.338,0a.046.046,0,0,1,.027.082l-.272.2.1.323a.046.046,0,0,1-.07.051l-.275-.2-.275.2a.046.046,0,0,1-.07-.051l.1-.323-.272-.2a.046.046,0,0,1,.027-.082l.338,0,.107-.321A.046.046,0,0,1,26.575,77.167Z" transform="translate(-25.997 -74.457)" fill="#f5f5f5"/>
      <path id="Path_2967" data-name="Path 2967" d="M26.575,136.1l.107.321.338,0a.046.046,0,0,1,.027.082l-.272.2.1.323a.046.046,0,0,1-.07.051l-.275-.2-.275.2a.046.046,0,0,1-.07-.051l.1-.323-.272-.2a.046.046,0,0,1,.027-.082l.338,0,.107-.321A.046.046,0,0,1,26.575,136.1Z" transform="translate(-25.997 -130.419)" fill="#f5f5f5"/>
      <path id="Path_2968" data-name="Path 2968" d="M26.575,190.246l.107.321.338,0a.046.046,0,0,1,.027.082l-.272.2.1.323a.046.046,0,0,1-.07.051l-.275-.2-.275.2a.046.046,0,0,1-.07-.051l.1-.323-.272-.2a.046.046,0,0,1,.027-.082l.338,0,.107-.321A.046.046,0,0,1,26.575,190.246Z" transform="translate(-25.997 -181.836)" fill="#f5f5f5"/>
      <path id="Path_2969" data-name="Path 2969" d="M26.575,239.518l.107.321.338,0a.046.046,0,0,1,.027.082l-.272.2.1.323a.046.046,0,0,1-.07.051l-.275-.2-.275.2a.046.046,0,0,1-.07-.051l.1-.323-.272-.2a.046.046,0,0,1,.027-.082l.338,0,.107-.321A.046.046,0,0,1,26.575,239.518Z" transform="translate(-25.997 -228.624)" fill="#f5f5f5"/>
      <path id="Path_2970" data-name="Path 2970" d="M52.441,49.193l.107.321.338,0a.046.046,0,0,1,.027.082l-.272.2.1.323a.046.046,0,0,1-.07.051l-.275-.2-.275.2a.046.046,0,0,1-.07-.051l.1-.323-.272-.2a.046.046,0,0,1,.027-.082l.338,0,.107-.321A.046.046,0,0,1,52.441,49.193Z" transform="translate(-50.559 -47.894)" fill="#f5f5f5"/>
      <path id="Path_2971" data-name="Path 2971" d="M52.439,108.126l.107.321.338,0a.046.046,0,0,1,.027.082l-.272.2.1.323a.046.046,0,0,1-.07.051l-.275-.2-.275.2a.046.046,0,0,1-.07-.051l.1-.323-.272-.2a.046.046,0,0,1,.027-.082l.338,0,.107-.321A.046.046,0,0,1,52.439,108.126Z" transform="translate(-50.557 -103.856)" fill="#f5f5f5"/>
      <path id="Path_2972" data-name="Path 2972" d="M52.439,164.118l.107.321.338,0a.046.046,0,0,1,.027.082l-.272.2.1.323a.046.046,0,0,1-.07.051l-.275-.2-.275.2a.046.046,0,0,1-.07-.051l.1-.323-.272-.2a.046.046,0,0,1,.027-.082l.338,0,.107-.321A.046.046,0,0,1,52.439,164.118Z" transform="translate(-50.557 -157.025)" fill="#f5f5f5"/>
      <path id="Path_2973" data-name="Path 2973" d="M52.439,214.4l.107.321.338,0a.046.046,0,0,1,.027.082l-.272.2.1.323a.046.046,0,0,1-.07.051l-.275-.2-.275.2a.046.046,0,0,1-.07-.051l.1-.323-.272-.2a.046.046,0,0,1,.027-.082l.338,0,.107-.321A.046.046,0,0,1,52.439,214.4Z" transform="translate(-50.557 -204.771)" fill="#f5f5f5"/>
      <path id="Path_2974" data-name="Path 2974" d="M78.3,24.031l.107.321.338,0a.046.046,0,0,1,.027.082l-.272.2.1.323a.046.046,0,0,1-.07.051l-.275-.2-.275.2a.046.046,0,0,1-.07-.051l.1-.323-.272-.2a.046.046,0,0,1,.027-.082l.338,0,.107-.321A.046.046,0,0,1,78.3,24.031Z" transform="translate(-75.116 -24)" fill="#f5f5f5"/>
      <path id="Path_2975" data-name="Path 2975" d="M78.3,77.167l.107.321.338,0a.046.046,0,0,1,.027.082l-.272.2.1.323a.046.046,0,0,1-.07.051l-.275-.2-.275.2a.046.046,0,0,1-.07-.051l.1-.323-.272-.2a.046.046,0,0,1,.027-.082l.338,0,.107-.321A.046.046,0,0,1,78.3,77.167Z" transform="translate(-75.116 -74.457)" fill="#f5f5f5"/>
      <path id="Path_2976" data-name="Path 2976" d="M78.3,136.1l.107.321.338,0a.046.046,0,0,1,.027.082l-.272.2.1.323a.046.046,0,0,1-.07.051l-.275-.2-.275.2a.046.046,0,0,1-.07-.051l.1-.323-.272-.2a.046.046,0,0,1,.027-.082l.338,0,.107-.321A.046.046,0,0,1,78.3,136.1Z" transform="translate(-75.116 -130.419)" fill="#f5f5f5"/>
      <path id="Path_2977" data-name="Path 2977" d="M78.3,190.246l.107.321.338,0a.046.046,0,0,1,.027.082l-.272.2.1.323a.046.046,0,0,1-.07.051l-.275-.2-.275.2a.046.046,0,0,1-.07-.051l.1-.323-.272-.2a.046.046,0,0,1,.027-.082l.338,0,.107-.321A.046.046,0,0,1,78.3,190.246Z" transform="translate(-75.116 -181.836)" fill="#f5f5f5"/>
      <path id="Path_2978" data-name="Path 2978" d="M78.3,239.518l.107.321.338,0a.046.046,0,0,1,.027.082l-.272.2.1.323a.046.046,0,0,1-.07.051l-.275-.2-.275.2a.046.046,0,0,1-.07-.051l.1-.323-.272-.2a.046.046,0,0,1,.027-.082l.338,0,.107-.321A.046.046,0,0,1,78.3,239.518Z" transform="translate(-75.116 -228.624)" fill="#f5f5f5"/>
      <path id="Path_2979" data-name="Path 2979" d="M104.164,49.193l.107.321.338,0a.046.046,0,0,1,.027.082l-.272.2.1.323a.046.046,0,0,1-.07.051l-.275-.2-.275.2a.046.046,0,0,1-.07-.051l.1-.323-.272-.2a.046.046,0,0,1,.027-.082l.338,0,.107-.321A.046.046,0,0,1,104.164,49.193Z" transform="translate(-99.675 -47.894)" fill="#f5f5f5"/>
      <path id="Path_2980" data-name="Path 2980" d="M104.164,108.126l.107.321.338,0a.046.046,0,0,1,.027.082l-.272.2.1.323a.046.046,0,0,1-.07.051l-.275-.2-.275.2a.046.046,0,0,1-.07-.051l.1-.323-.272-.2a.046.046,0,0,1,.027-.082l.338,0,.107-.321A.046.046,0,0,1,104.164,108.126Z" transform="translate(-99.675 -103.856)" fill="#f5f5f5"/>
      <path id="Path_2981" data-name="Path 2981" d="M104.164,164.118l.107.321.338,0a.046.046,0,0,1,.027.082l-.272.2.1.323a.046.046,0,0,1-.07.051l-.275-.2-.275.2a.046.046,0,0,1-.07-.051l.1-.323-.272-.2a.046.046,0,0,1,.027-.082l.338,0,.107-.321A.046.046,0,0,1,104.164,164.118Z" transform="translate(-99.675 -157.025)" fill="#f5f5f5"/>
      <path id="Path_2982" data-name="Path 2982" d="M104.164,214.4l.107.321.338,0a.046.046,0,0,1,.027.082l-.272.2.1.323a.046.046,0,0,1-.07.051l-.275-.2-.275.2a.046.046,0,0,1-.07-.051l.1-.323-.272-.2a.046.046,0,0,1,.027-.082l.338,0,.107-.321A.046.046,0,0,1,104.164,214.4Z" transform="translate(-99.675 -204.771)" fill="#f5f5f5"/>
      <path id="Path_2983" data-name="Path 2983" d="M130.028,24.031l.107.321.339,0a.046.046,0,0,1,.027.082l-.272.2.1.323a.046.046,0,0,1-.07.051l-.275-.2-.275.2a.046.046,0,0,1-.07-.051l.1-.323-.272-.2a.046.046,0,0,1,.027-.082l.338,0,.107-.321A.046.046,0,0,1,130.028,24.031Z" transform="translate(-124.235 -24)" fill="#f5f5f5"/>
      <path id="Path_2984" data-name="Path 2984" d="M130.029,77.167l.107.321.338,0a.046.046,0,0,1,.027.082l-.272.2.1.323a.046.046,0,0,1-.07.051l-.275-.2-.275.2a.046.046,0,0,1-.07-.051l.1-.323-.272-.2a.046.046,0,0,1,.027-.082l.338,0,.107-.321A.046.046,0,0,1,130.029,77.167Z" transform="translate(-124.236 -74.457)" fill="#f5f5f5"/>
      <path id="Path_2985" data-name="Path 2985" d="M130.028,136.1l.107.321.339,0a.046.046,0,0,1,.027.082l-.272.2.1.323a.046.046,0,0,1-.07.051l-.275-.2-.275.2a.046.046,0,0,1-.07-.051l.1-.323-.272-.2a.046.046,0,0,1,.027-.082l.338,0,.107-.321A.046.046,0,0,1,130.028,136.1Z" transform="translate(-124.235 -130.419)" fill="#f5f5f5"/>
      <path id="Path_2986" data-name="Path 2986" d="M130.028,190.246l.107.321.339,0a.046.046,0,0,1,.027.082l-.272.2.1.323a.046.046,0,0,1-.07.051l-.275-.2-.275.2a.046.046,0,0,1-.07-.051l.1-.323-.272-.2a.046.046,0,0,1,.027-.082l.338,0,.107-.321A.046.046,0,0,1,130.028,190.246Z" transform="translate(-124.235 -181.836)" fill="#f5f5f5"/>
      <path id="Path_2987" data-name="Path 2987" d="M130.028,239.518l.107.321.339,0a.046.046,0,0,1,.027.082l-.272.2.1.323a.046.046,0,0,1-.07.051l-.275-.2-.275.2a.046.046,0,0,1-.07-.051l.1-.323-.272-.2a.046.046,0,0,1,.027-.082l.338,0,.107-.321A.046.046,0,0,1,130.028,239.518Z" transform="translate(-124.235 -228.624)" fill="#f5f5f5"/>
      <path id="Path_2988" data-name="Path 2988" d="M155.89,49.193l.107.321.338,0a.046.046,0,0,1,.027.082l-.272.2.1.323a.046.046,0,0,1-.07.051l-.275-.2-.275.2a.046.046,0,0,1-.07-.051l.1-.323-.272-.2a.046.046,0,0,1,.027-.082l.338,0,.107-.321A.046.046,0,0,1,155.89,49.193Z" transform="translate(-148.793 -47.894)" fill="#f5f5f5"/>
      <path id="Path_2989" data-name="Path 2989" d="M155.89,108.126l.107.321.338,0a.046.046,0,0,1,.027.082l-.272.2.1.323a.046.046,0,0,1-.07.051l-.275-.2-.275.2a.046.046,0,0,1-.07-.051l.1-.323-.272-.2a.046.046,0,0,1,.027-.082l.338,0,.107-.321A.046.046,0,0,1,155.89,108.126Z" transform="translate(-148.793 -103.856)" fill="#f5f5f5"/>
      <path id="Path_2990" data-name="Path 2990" d="M155.89,164.118l.107.321.338,0a.046.046,0,0,1,.027.082l-.272.2.1.323a.046.046,0,0,1-.07.051l-.275-.2-.275.2a.046.046,0,0,1-.07-.051l.1-.323-.272-.2a.046.046,0,0,1,.027-.082l.338,0,.107-.321A.046.046,0,0,1,155.89,164.118Z" transform="translate(-148.793 -157.025)" fill="#f5f5f5"/>
      <path id="Path_2991" data-name="Path 2991" d="M155.89,214.4l.107.321.338,0a.046.046,0,0,1,.027.082l-.272.2.1.323a.046.046,0,0,1-.07.051l-.275-.2-.275.2a.046.046,0,0,1-.07-.051l.1-.323-.272-.2a.046.046,0,0,1,.027-.082l.338,0,.107-.321A.046.046,0,0,1,155.89,214.4Z" transform="translate(-148.793 -204.771)" fill="#f5f5f5"/>
      <path id="Path_2992" data-name="Path 2992" d="M181.752,24.031l.107.321.338,0a.046.046,0,0,1,.027.082l-.272.2.1.323a.046.046,0,0,1-.07.051l-.275-.2-.275.2a.046.046,0,0,1-.07-.051l.1-.323-.272-.2a.046.046,0,0,1,.027-.082l.338,0,.107-.321A.046.046,0,0,1,181.752,24.031Z" transform="translate(-173.351 -24)" fill="#f5f5f5"/>
      <path id="Path_2993" data-name="Path 2993" d="M181.752,77.167l.107.321.338,0a.046.046,0,0,1,.027.082l-.272.2.1.323a.046.046,0,0,1-.07.051l-.275-.2-.275.2a.046.046,0,0,1-.07-.051l.1-.323-.272-.2a.046.046,0,0,1,.027-.082l.338,0,.107-.321A.046.046,0,0,1,181.752,77.167Z" transform="translate(-173.351 -74.457)" fill="#f5f5f5"/>
      <path id="Path_2994" data-name="Path 2994" d="M181.752,136.1l.107.321.338,0a.046.046,0,0,1,.027.082l-.272.2.1.323a.046.046,0,0,1-.07.051l-.275-.2-.275.2a.046.046,0,0,1-.07-.051l.1-.323-.272-.2a.046.046,0,0,1,.027-.082l.338,0,.107-.321A.046.046,0,0,1,181.752,136.1Z" transform="translate(-173.351 -130.419)" fill="#f5f5f5"/>
      <path id="Path_2995" data-name="Path 2995" d="M181.752,190.246l.107.321.338,0a.046.046,0,0,1,.027.082l-.272.2.1.323a.046.046,0,0,1-.07.051l-.275-.2-.275.2a.046.046,0,0,1-.07-.051l.1-.323-.272-.2a.046.046,0,0,1,.027-.082l.338,0,.107-.321A.046.046,0,0,1,181.752,190.246Z" transform="translate(-173.351 -181.836)" fill="#f5f5f5"/>
      <path id="Path_2996" data-name="Path 2996" d="M181.752,239.518l.107.321.338,0a.046.046,0,0,1,.027.082l-.272.2.1.323a.046.046,0,0,1-.07.051l-.275-.2-.275.2a.046.046,0,0,1-.07-.051l.1-.323-.272-.2a.046.046,0,0,1,.027-.082l.338,0,.107-.321A.046.046,0,0,1,181.752,239.518Z" transform="translate(-173.351 -228.624)" fill="#f5f5f5"/>
      <path id="Path_2997" data-name="Path 2997" d="M207.616,49.193l.107.321.339,0a.046.046,0,0,1,.027.082l-.272.2.1.323a.046.046,0,0,1-.07.051l-.275-.2-.275.2a.046.046,0,0,1-.07-.051l.1-.323-.272-.2a.046.046,0,0,1,.027-.082l.339,0,.107-.321A.046.046,0,0,1,207.616,49.193Z" transform="translate(-197.911 -47.894)" fill="#f5f5f5"/>
      <path id="Path_2998" data-name="Path 2998" d="M207.616,108.126l.107.321.339,0a.046.046,0,0,1,.027.082l-.272.2.1.323a.046.046,0,0,1-.07.051l-.275-.2-.275.2a.046.046,0,0,1-.07-.051l.1-.323-.272-.2a.046.046,0,0,1,.027-.082l.339,0,.107-.321A.046.046,0,0,1,207.616,108.126Z" transform="translate(-197.911 -103.856)" fill="#f5f5f5"/>
      <path id="Path_2999" data-name="Path 2999" d="M207.616,164.118l.107.321.339,0a.046.046,0,0,1,.027.082l-.272.2.1.323a.046.046,0,0,1-.07.051l-.275-.2-.275.2a.046.046,0,0,1-.07-.051l.1-.323-.272-.2a.046.046,0,0,1,.027-.082l.339,0,.107-.321A.046.046,0,0,1,207.616,164.118Z" transform="translate(-197.911 -157.025)" fill="#f5f5f5"/>
      <path id="Path_3000" data-name="Path 3000" d="M207.616,214.4l.107.321.339,0a.046.046,0,0,1,.027.082l-.272.2.1.323a.046.046,0,0,1-.07.051l-.275-.2-.275.2a.046.046,0,0,1-.07-.051l.1-.323-.272-.2a.046.046,0,0,1,.027-.082l.339,0,.107-.321A.046.046,0,0,1,207.616,214.4Z" transform="translate(-197.911 -204.771)" fill="#f5f5f5"/>
      <path id="Path_3001" data-name="Path 3001" d="M233.479,24.031l.107.321.338,0a.046.046,0,0,1,.027.082l-.272.2.1.323a.046.046,0,0,1-.07.051l-.275-.2-.275.2a.046.046,0,0,1-.07-.051l.1-.323-.272-.2a.046.046,0,0,1,.027-.082l.338,0,.107-.321A.046.046,0,0,1,233.479,24.031Z" transform="translate(-222.47 -24)" fill="#f5f5f5"/>
      <path id="Path_3002" data-name="Path 3002" d="M233.479,77.167l.107.321.338,0a.046.046,0,0,1,.027.082l-.272.2.1.323a.046.046,0,0,1-.07.051l-.275-.2-.275.2a.046.046,0,0,1-.07-.051l.1-.323-.272-.2a.046.046,0,0,1,.027-.082l.338,0,.107-.321A.046.046,0,0,1,233.479,77.167Z" transform="translate(-222.47 -74.457)" fill="#f5f5f5"/>
      <path id="Path_3003" data-name="Path 3003" d="M233.479,136.1l.107.321.338,0a.046.046,0,0,1,.027.082l-.272.2.1.323a.046.046,0,0,1-.07.051l-.275-.2-.275.2a.046.046,0,0,1-.07-.051l.1-.323-.272-.2a.046.046,0,0,1,.027-.082l.338,0,.107-.321A.046.046,0,0,1,233.479,136.1Z" transform="translate(-222.47 -130.419)" fill="#f5f5f5"/>
      <path id="Path_3004" data-name="Path 3004" d="M233.479,190.246l.107.321.338,0a.046.046,0,0,1,.027.082l-.272.2.1.323a.046.046,0,0,1-.07.051l-.275-.2-.275.2a.046.046,0,0,1-.07-.051l.1-.323-.272-.2a.046.046,0,0,1,.027-.082l.338,0,.107-.321A.046.046,0,0,1,233.479,190.246Z" transform="translate(-222.47 -181.836)" fill="#f5f5f5"/>
      <path id="Path_3005" data-name="Path 3005" d="M233.479,239.518l.107.321.338,0a.046.046,0,0,1,.027.082l-.272.2.1.323a.046.046,0,0,1-.07.051l-.275-.2-.275.2a.046.046,0,0,1-.07-.051l.1-.323-.272-.2a.046.046,0,0,1,.027-.082l.338,0,.107-.321A.046.046,0,0,1,233.479,239.518Z" transform="translate(-222.47 -228.624)" fill="#f5f5f5"/>
    </g>
  </g>
</svg>
