<svg id="view" xmlns="http://www.w3.org/2000/svg" width="20.756" height="13.378" viewBox="0 0 20.756 13.378">
  <g id="Group_5751" data-name="Group 5751">
    <g id="Group_5750" data-name="Group 5750">
      <path id="Path_11336" data-name="Path 11336" d="M20.642,97.333C20.457,97.074,16.04,91,10.419,91S.3,97.074.115,97.333a.606.606,0,0,0,0,.708c.185.259,4.683,6.335,10.3,6.335S20.457,98.3,20.642,98.041A.606.606,0,0,0,20.642,97.333Zm-10.223,4.61a4.257,4.257,0,1,1,0-8.513,4.257,4.257,0,0,1,0,8.513Z" transform="translate(0 -90.998)" fill="#a9a7b6"/>
    </g>
  </g>
  <g id="Group_5753" data-name="Group 5753" transform="translate(8.513 4.865)">
    <g id="Group_5752" data-name="Group 5752">
      <path id="Path_11337" data-name="Path 11337" d="M211.911,211a1.826,1.826,0,1,0,0,3.648,1.824,1.824,0,1,0,0-3.648Z" transform="translate(-210.006 -210.999)" fill="#a9a7b6"/>
    </g>
  </g>
</svg>
