<svg id="post-active" xmlns="http://www.w3.org/2000/svg" width="29.592" height="29.592" viewBox="0 0 29.592 29.592">
  <path id="Path_11320" data-name="Path 11320" d="M27.434,169.333H2.158A2.168,2.168,0,0,0,0,171.491V186.9a2.168,2.168,0,0,0,2.158,2.158H27.434a2.168,2.168,0,0,0,2.158-2.158V171.491A2.168,2.168,0,0,0,27.434,169.333Zm-1.541,5.857V183.2a2.16,2.16,0,0,1-2.158,2.158H16.954A2.16,2.16,0,0,1,14.8,183.2V175.19a2.16,2.16,0,0,1,2.158-2.158h6.781A2.16,2.16,0,0,1,25.893,175.19Zm-14.488,4.624H4.624a.925.925,0,0,1,0-1.849h6.781a.925.925,0,1,1,0,1.849Zm.925,2.774a.932.932,0,0,1-.925.925H4.624a.925.925,0,0,1,0-1.849h6.781A.932.932,0,0,1,12.33,182.588Zm-.925-6.473H4.624a.925.925,0,1,1,0-1.849h6.781a.925.925,0,1,1,0,1.849Z" transform="translate(0 -159.469)" fill="#04d1ef"/>
  <path id="Path_11321" data-name="Path 11321" d="M27.434,0H2.158A2.16,2.16,0,0,0,0,2.158V5.24A2.16,2.16,0,0,0,2.158,7.4H27.434A2.16,2.16,0,0,0,29.592,5.24V2.158A2.16,2.16,0,0,0,27.434,0Z" transform="translate(0)" fill="#04d1ef"/>
</svg>
