<svg xmlns="http://www.w3.org/2000/svg" width="30.324" height="31.14" viewBox="0 0 30.324 31.14">
  <g id="setting-inactive" transform="translate(-6.71)">
    <g id="Group_5864" data-name="Group 5864" transform="translate(6.71)">
      <path id="Path_11552" data-name="Path 11552" d="M36.509,18.983l-2.862-2.238a11.269,11.269,0,0,0,.067-1.176,10.929,10.929,0,0,0-.067-1.176l2.865-2.239a1.4,1.4,0,0,0,.339-1.788l-2.977-5.15A1.38,1.38,0,0,0,32.152,4.6L28.775,5.953a11.579,11.579,0,0,0-2.028-1.177l-.514-3.582A1.378,1.378,0,0,0,24.858,0H18.889a1.374,1.374,0,0,0-1.373,1.183L17,4.779a11.937,11.937,0,0,0-2.024,1.177L11.591,4.6A1.407,1.407,0,0,0,9.882,5.2L6.9,10.361a1.4,1.4,0,0,0,.337,1.8L10.1,14.4a10.266,10.266,0,0,0,0,2.35L7.236,18.985A1.4,1.4,0,0,0,6.9,20.773l2.977,5.15a1.377,1.377,0,0,0,1.722.619l3.377-1.356A11.682,11.682,0,0,0,17,26.363l.514,3.581a1.377,1.377,0,0,0,1.375,1.2h5.969a1.376,1.376,0,0,0,1.374-1.183l.515-3.594a11.993,11.993,0,0,0,2.024-1.178l3.387,1.36a1.394,1.394,0,0,0,.509.1,1.37,1.37,0,0,0,1.2-.7l2.989-5.177A1.4,1.4,0,0,0,36.509,18.983ZM21.873,20.76a5.19,5.19,0,1,1,5.19-5.19A5.2,5.2,0,0,1,21.873,20.76Z" transform="translate(-6.71)" fill="#fff"/>
    </g>
  </g>
</svg>
