<svg xmlns="http://www.w3.org/2000/svg" width="29.684" height="29.684" viewBox="0 0 29.684 29.684">
  <g id="workshop-active" transform="translate(0 0)">
    <g id="Group_5732" data-name="Group 5732">
      <g id="Group_5731" data-name="Group 5731">
        <path id="Path_11322" data-name="Path 11322" d="M320.2,157.586l.395.395a2.022,2.022,0,0,0,2.863,0l5.4-5.4a2.026,2.026,0,0,0,0-2.864l-.4-.4a.674.674,0,0,0-.954,0l-7.3,7.31A.675.675,0,0,0,320.2,157.586Z" transform="translate(-299.761 -139.693)" fill="#04d1ef"/>
        <path id="Path_11323" data-name="Path 11323" d="M171.655,9.234a.674.674,0,0,0,.954,0l7.3-7.31a.675.675,0,0,0,0-.955L179.52.575a2.071,2.071,0,0,0-2.863,0l-5.4,5.4a2.025,2.025,0,0,0,0,2.864Z" transform="translate(-159.873 0)" fill="#04d1ef"/>
        <path id="Path_11324" data-name="Path 11324" d="M18.529,55.689a.674.674,0,0,0,.954,0l7.3-7.31a.675.675,0,0,0,0-.955l-4.838-4.842a.674.674,0,0,0-.954,0l-7.3,7.31a.675.675,0,0,0,0,.955l.97.971C9.436,56.348,2.722,62.847.791,64.779A2.7,2.7,0,1,0,4.607,68.6c2.324-2.326,8.661-8.892,12.968-13.863Z" transform="translate(0 -39.705)" fill="#04d1ef"/>
        <path id="Path_11325" data-name="Path 11325" d="M205.493,362.667h-9.445A4.035,4.035,0,0,0,192,366.7a2.7,2.7,0,0,0,2.7,2.7h12.143a2.7,2.7,0,0,0,2.7-2.7A4.036,4.036,0,0,0,205.493,362.667Z" transform="translate(-179.857 -339.73)" fill="#04d1ef"/>
      </g>
    </g>
  </g>
</svg>
