<svg id="header-setting" xmlns="http://www.w3.org/2000/svg" width="28.924" height="29.152" viewBox="0 0 28.924 29.152">
  <g id="Group_5769" data-name="Group 5769" transform="translate(9.907 10.021)">
    <g id="Group_5768" data-name="Group 5768">
      <path id="Path_11344" data-name="Path 11344" d="M180.555,176a4.555,4.555,0,1,0,4.555,4.555A4.56,4.56,0,0,0,180.555,176Zm0,6.832a2.277,2.277,0,1,1,2.277-2.277A2.28,2.28,0,0,1,180.555,182.832Z" transform="translate(-176 -176)" fill="#222"/>
    </g>
  </g>
  <g id="Group_5771" data-name="Group 5771" transform="translate(0)">
    <g id="Group_5770" data-name="Group 5770">
      <path id="Path_11345" data-name="Path 11345" d="M30.477,17.971l-2.949-2.259a10.734,10.734,0,0,0,0-2.272l2.949-2.259A1.139,1.139,0,0,0,30.765,9.7L27.91,4.859a1.139,1.139,0,0,0-1.4-.481l-3.5,1.378A11.129,11.129,0,0,0,20.969,4.6L20.444.975A1.139,1.139,0,0,0,19.317,0H13.606a1.139,1.139,0,0,0-1.127.975L11.954,4.6A11.132,11.132,0,0,0,9.91,5.756l-3.5-1.378a1.139,1.139,0,0,0-1.4.481L2.158,9.7a1.139,1.139,0,0,0,.288,1.483L5.394,13.44a10.734,10.734,0,0,0,0,2.272L2.446,17.971a1.139,1.139,0,0,0-.288,1.483l2.855,4.838a1.139,1.139,0,0,0,1.4.481L9.91,23.4a11.132,11.132,0,0,0,2.044,1.158l.525,3.623a1.139,1.139,0,0,0,1.127.975h5.711a1.139,1.139,0,0,0,1.127-.975l.525-3.623A11.128,11.128,0,0,0,23.013,23.4l3.5,1.378a1.139,1.139,0,0,0,1.4-.481l2.855-4.838A1.139,1.139,0,0,0,30.477,17.971ZM26.442,22.3l-3.191-1.257a1.139,1.139,0,0,0-1.135.175,8.871,8.871,0,0,1-2.569,1.453,1.139,1.139,0,0,0-.738.907l-.478,3.3h-3.74l-.478-3.3a1.139,1.139,0,0,0-.738-.907,8.874,8.874,0,0,1-2.569-1.453,1.139,1.139,0,0,0-1.135-.175L6.481,22.3,4.632,19.165l2.674-2.049a1.139,1.139,0,0,0,.43-1.1,8.485,8.485,0,0,1,0-2.887,1.139,1.139,0,0,0-.43-1.1L4.632,9.986,6.481,6.854,9.672,8.11a1.139,1.139,0,0,0,1.135-.175,8.874,8.874,0,0,1,2.569-1.453,1.139,1.139,0,0,0,.738-.907l.478-3.3h3.74l.478,3.3a1.139,1.139,0,0,0,.738.907,8.874,8.874,0,0,1,2.569,1.453,1.139,1.139,0,0,0,1.135.175l3.191-1.257,1.849,3.133-2.674,2.049a1.139,1.139,0,0,0-.43,1.1,8.485,8.485,0,0,1,0,2.887,1.139,1.139,0,0,0,.43,1.1l2.674,2.049Z" transform="translate(-2)" fill="#222"/>
    </g>
  </g>
</svg>
